<svg width="722" height="399" xmlns="http://www.w3.org/2000/svg" xmlns:xlink="http://www.w3.org/1999/xlink" overflow="hidden"><defs><clipPath id="clip0"><rect x="229" y="192" width="722" height="399"/></clipPath><clipPath id="clip1"><rect x="239" y="189" width="723" height="423"/></clipPath><clipPath id="clip2"><rect x="309" y="231" width="644" height="330"/></clipPath><clipPath id="clip3"><rect x="309" y="231" width="644" height="330"/></clipPath><clipPath id="clip4"><rect x="309" y="231" width="644" height="330"/></clipPath><clipPath id="clip5"><rect x="309" y="231" width="644" height="330"/></clipPath><clipPath id="clip6"><rect x="309" y="231" width="644" height="330"/></clipPath><clipPath id="clip7"><rect x="239" y="189" width="723" height="423"/></clipPath><clipPath id="clip8"><rect x="239" y="189" width="723" height="423"/></clipPath><clipPath id="clip9"><rect x="239" y="189" width="723" height="423"/></clipPath><clipPath id="clip10"><rect x="239" y="189" width="723" height="423"/></clipPath><clipPath id="clip11"><rect x="239" y="189" width="723" height="423"/></clipPath><clipPath id="clip12"><rect x="239" y="189" width="723" height="423"/></clipPath><clipPath id="clip13"><rect x="239" y="189" width="723" height="423"/></clipPath><clipPath id="clip14"><rect x="239" y="189" width="723" height="423"/></clipPath><clipPath id="clip15"><rect x="239" y="189" width="723" height="423"/></clipPath><clipPath id="clip16"><rect x="239" y="189" width="723" height="423"/></clipPath><clipPath id="clip17"><rect x="239" y="189" width="723" height="423"/></clipPath><clipPath id="clip18"><rect x="239" y="189" width="723" height="423"/></clipPath><clipPath id="clip19"><rect x="239" y="189" width="723" height="423"/></clipPath><clipPath id="clip20"><rect x="239" y="189" width="723" height="423"/></clipPath><clipPath id="clip21"><rect x="239" y="189" width="723" height="423"/></clipPath><clipPath id="clip22"><rect x="239" y="189" width="723" height="423"/></clipPath><clipPath id="clip23"><rect x="239" y="189" width="723" height="423"/></clipPath><clipPath id="clip24"><rect x="239" y="189" width="723" height="423"/></clipPath><clipPath id="clip25"><rect x="239" y="189" width="723" height="423"/></clipPath><clipPath id="clip26"><rect x="239" y="189" width="723" height="423"/></clipPath><clipPath id="clip27"><rect x="239" y="189" width="723" height="423"/></clipPath><clipPath id="clip28"><rect x="239" y="189" width="723" height="423"/></clipPath><clipPath id="clip29"><rect x="239" y="189" width="723" height="423"/></clipPath><clipPath id="clip30"><rect x="239" y="189" width="723" height="423"/></clipPath><clipPath id="clip31"><rect x="239" y="189" width="723" height="423"/></clipPath><clipPath id="clip32"><rect x="239" y="189" width="723" height="423"/></clipPath><clipPath id="clip33"><rect x="239" y="189" width="723" height="423"/></clipPath><clipPath id="clip34"><rect x="239" y="189" width="723" height="423"/></clipPath><clipPath id="clip35"><rect x="239" y="189" width="723" height="423"/></clipPath><clipPath id="clip36"><rect x="239" y="189" width="723" height="423"/></clipPath><clipPath id="clip37"><rect x="239" y="189" width="723" height="423"/></clipPath><clipPath id="clip38"><rect x="239" y="189" width="723" height="423"/></clipPath><clipPath id="clip39"><rect x="239" y="189" width="723" height="423"/></clipPath><clipPath id="clip40"><rect x="239" y="189" width="723" height="423"/></clipPath><clipPath id="clip41"><rect x="239" y="189" width="723" height="423"/></clipPath><clipPath id="clip42"><rect x="239" y="189" width="723" height="423"/></clipPath><clipPath id="clip43"><rect x="239" y="189" width="723" height="423"/></clipPath><clipPath id="clip44"><rect x="239" y="189" width="723" height="423"/></clipPath><clipPath id="clip45"><rect x="239" y="189" width="723" height="423"/></clipPath><clipPath id="clip46"><rect x="239" y="189" width="723" height="423"/></clipPath></defs><g clip-path="url(#clip0)" transform="translate(-229 -192)"><path d="M0 0 1243.7 0 1243.7 699.583 0 699.583Z" fill="#FFFFFF" transform="matrix(1.00039 0 0 1 180.937 -48.0128)"/><text fill="#8C8C8C" font-family="Trebuchet MS,Trebuchet MS_MSFontService,sans-serif" font-weight="400" font-size="16" transform="matrix(0.648013 0 0 0.647762 1311.97 628)">23</text><text font-family="Trebuchet MS,Trebuchet MS_MSFontService,sans-serif" font-weight="400" font-size="64" transform="matrix(0.648013 0 0 0.647762 601.768 65)">COMPRESSION RATIOS<tspan fill="#76B900" font-size="40" x="-117.25" y="54.0322">Real</tspan><tspan fill="#76B900" font-size="40" x="-39.2499" y="54.0322">-</tspan><tspan fill="#76B900" font-size="40" x="-24.5833" y="54.0322">world data analytics and graphics datasets</tspan></text><g clip-path="url(#clip1)"><path d="M128.581 561.286 770.513 561.286M128.581 514.647 770.513 514.647M128.581 467.36 770.513 467.36M128.581 420.721 770.513 420.721M128.581 374.082 770.513 374.082M128.581 326.796 770.513 326.796M128.581 280.157 770.513 280.157" stroke="#D9D9D9" stroke-width="0.647762" stroke-linejoin="round" stroke-miterlimit="10" fill="none" transform="matrix(1.00039 0 0 1 180.937 -48.0128)"/></g><g clip-path="url(#clip2)"><path d="M136.678 311.573 144.451 311.573 144.451 608.248 136.678 608.248ZM200.806 389.305 208.579 389.305 208.579 608.248 200.806 608.248ZM265.582 527.278 273.355 527.278 273.355 608.248 265.582 608.248ZM329.711 350.439 337.484 350.439 337.484 608.248 329.711 608.248ZM393.839 411.329 401.612 411.329 401.612 608.248 393.839 608.248ZM457.968 606.305 465.741 606.305 465.741 608.248 457.968 608.248ZM586.224 564.848 593.998 564.848 593.998 608.248 586.224 608.248ZM650.353 607.601 658.126 607.601 658.126 608.248 650.353 608.248ZM714.481 377.645 722.254 377.645 722.254 608.248 714.481 608.248Z" fill="#FFC000" transform="matrix(1.00039 0 0 1 180.937 -48.0128)"/></g><g clip-path="url(#clip3)"><path d="M147.042 360.803 154.167 360.803 154.167 608.248 147.042 608.248ZM211.17 399.021 218.943 399.021 218.943 608.248 211.17 608.248ZM275.299 318.699 283.072 318.699 283.072 608.248 275.299 608.248ZM339.427 391.248 347.2 391.248 347.2 608.248 339.427 608.248ZM403.556 417.159 411.329 417.159 411.329 608.248 403.556 608.248ZM467.684 601.123 475.457 601.123 475.457 608.248 467.684 608.248ZM531.812 490.356 539.586 490.356 539.586 608.248 531.812 608.248ZM595.941 493.594 603.714 493.594 603.714 608.248 595.941 608.248ZM660.069 560.314 667.842 560.314 667.842 608.248 660.069 608.248ZM724.845 399.669 732.619 399.669 732.619 608.248 724.845 608.248Z" fill="#92D050" transform="matrix(1.00039 0 0 1 180.937 -48.0128)"/></g><g clip-path="url(#clip4)"><path d="M156.758 420.397 164.531 420.397 164.531 608.248 156.758 608.248ZM220.887 413.92 228.66 413.92 228.66 608.248 220.887 608.248ZM285.015 443.717 292.788 443.717 292.788 608.248 285.015 608.248ZM349.144 417.159 356.917 417.159 356.917 608.248 349.144 608.248ZM413.272 419.102 421.045 419.102 421.045 608.248 413.272 608.248ZM477.4 600.475 485.174 600.475 485.174 608.248 477.4 608.248ZM541.529 487.765 549.302 487.765 549.302 608.248 541.529 608.248ZM606.305 499.424 614.078 499.424 614.078 608.248 606.305 608.248ZM670.433 551.245 678.207 551.245 678.207 608.248 670.433 608.248ZM734.562 428.818 742.335 428.818 742.335 608.248 734.562 608.248Z" fill="#008564" transform="matrix(1.00039 0 0 1 180.937 -48.0128)"/></g><g clip-path="url(#clip5)"><path d="M166.475 365.338 174.248 365.338 174.248 608.248 166.475 608.248ZM230.603 384.77 238.376 384.77 238.376 608.248 230.603 608.248ZM294.732 375.702 302.505 375.702 302.505 608.248 294.732 608.248ZM358.86 376.997 366.633 376.997 366.633 608.248 358.86 608.248ZM422.988 399.669 430.762 399.669 430.762 608.248 422.988 608.248ZM487.765 592.702 495.538 592.702 495.538 608.248 487.765 608.248ZM551.893 474.162 559.666 474.162 559.666 608.248 551.893 608.248ZM616.021 482.583 623.795 482.583 623.795 608.248 616.021 608.248ZM680.15 544.12 687.923 544.12 687.923 608.248 680.15 608.248ZM744.278 384.77 752.051 384.77 752.051 608.248 744.278 608.248Z" fill="#43AFFF" transform="matrix(1.00039 0 0 1 180.937 -48.0128)"/></g><g clip-path="url(#clip6)"><path d="M176.191 399.021 183.964 399.021 183.964 608.248 176.191 608.248ZM240.32 443.717 248.093 443.717 248.093 608.248 240.32 608.248ZM304.448 524.039 312.221 524.039 312.221 608.248 304.448 608.248ZM369.224 382.179 376.997 382.179 376.997 608.248 369.224 608.248ZM433.353 449.547 441.126 449.547 441.126 608.248 433.353 608.248ZM497.481 598.532 505.254 598.532 505.254 608.248 497.481 608.248ZM561.609 535.051 569.383 535.051 569.383 608.248 561.609 608.248ZM625.738 508.493 633.511 508.493 633.511 608.248 625.738 608.248ZM689.866 522.744 697.639 522.744 697.639 608.248 689.866 608.248ZM753.995 456.672 761.768 456.672 761.768 608.248 753.995 608.248Z" fill="#9A9A9A" transform="matrix(1.00039 0 0 1 180.937 -48.0128)"/></g><g clip-path="url(#clip7)"><path d="M128.581 608.572 770.513 608.572" stroke="#FFFFFF" stroke-width="0.647762" stroke-linejoin="round" stroke-miterlimit="10" fill="none" fill-rule="evenodd" transform="matrix(1.00039 0 0 1 180.937 -48.0128)"/></g><g clip-path="url(#clip8)"><text fill="#5E5E5E" font-family="Trebuchet MS,Trebuchet MS_MSFontService,sans-serif" font-weight="400" font-size="24" transform="matrix(0.648013 0 0 0.647762 287.294 565)">1</text></g><g clip-path="url(#clip9)"><text fill="#5E5E5E" font-family="Trebuchet MS,Trebuchet MS_MSFontService,sans-serif" font-weight="400" font-size="24" transform="matrix(0.648013 0 0 0.647762 287.294 519)">2</text></g><g clip-path="url(#clip10)"><text fill="#5E5E5E" font-family="Trebuchet MS,Trebuchet MS_MSFontService,sans-serif" font-weight="400" font-size="24" transform="matrix(0.648013 0 0 0.647762 287.294 472)">4</text></g><g clip-path="url(#clip11)"><text fill="#5E5E5E" font-family="Trebuchet MS,Trebuchet MS_MSFontService,sans-serif" font-weight="400" font-size="24" transform="matrix(0.648013 0 0 0.647762 287.294 425)">8</text></g><g clip-path="url(#clip12)"><text fill="#5E5E5E" font-family="Trebuchet MS,Trebuchet MS_MSFontService,sans-serif" font-weight="400" font-size="24" transform="matrix(0.648013 0 0 0.647762 279.137 378)">16</text></g><g clip-path="url(#clip13)"><text fill="#5E5E5E" font-family="Trebuchet MS,Trebuchet MS_MSFontService,sans-serif" font-weight="400" font-size="24" transform="matrix(0.648013 0 0 0.647762 279.137 331)">32</text></g><g clip-path="url(#clip14)"><text fill="#5E5E5E" font-family="Trebuchet MS,Trebuchet MS_MSFontService,sans-serif" font-weight="400" font-size="24" transform="matrix(0.648013 0 0 0.647762 279.137 284)">64</text></g><g clip-path="url(#clip15)"><text fill="#5E5E5E" font-family="Trebuchet MS,Trebuchet MS_MSFontService,sans-serif" font-weight="400" font-size="24" transform="matrix(0.648013 0 0 0.647762 270.98 237)">128</text></g><g clip-path="url(#clip16)"><text fill="#5E5E5E" font-family="Trebuchet MS,Trebuchet MS_MSFontService,sans-serif" font-weight="400" font-size="24" transform="matrix(0.648013 0 0 0.647762 324.723 585)">col <tspan font-size="24" x="39" y="0">0</tspan></text></g><g clip-path="url(#clip17)"><text fill="#5E5E5E" font-family="Trebuchet MS,Trebuchet MS_MSFontService,sans-serif" font-weight="400" font-size="24" transform="matrix(0.648013 0 0 0.647762 316.506 603)">integer</text></g><g clip-path="url(#clip18)"><text fill="#5E5E5E" font-family="Trebuchet MS,Trebuchet MS_MSFontService,sans-serif" font-weight="400" font-size="24" transform="matrix(0.648013 0 0 0.647762 384.876 585)">col <tspan font-size="24" x="39" y="0">12</tspan></text></g><g clip-path="url(#clip19)"><text fill="#5E5E5E" font-family="Trebuchet MS,Trebuchet MS_MSFontService,sans-serif" font-weight="400" font-size="24" transform="matrix(0.648013 0 0 0.647762 386.07 603)">string</text></g><g clip-path="url(#clip20)"><text fill="#5E5E5E" font-family="Trebuchet MS,Trebuchet MS_MSFontService,sans-serif" font-weight="400" font-size="24" transform="matrix(0.648013 0 0 0.647762 453.185 585)">col <tspan font-size="24" x="39" y="0">2</tspan></text></g><g clip-path="url(#clip21)"><text fill="#5E5E5E" font-family="Trebuchet MS,Trebuchet MS_MSFontService,sans-serif" font-weight="400" font-size="24" transform="matrix(0.648013 0 0 0.647762 450.301 603)">string</text></g><g clip-path="url(#clip22)"><text fill="#5E5E5E" font-family="Trebuchet MS,Trebuchet MS_MSFontService,sans-serif" font-weight="400" font-size="24" transform="matrix(0.648013 0 0 0.647762 517.415 585)">col <tspan font-size="24" x="39" y="0">3</tspan></text></g><g clip-path="url(#clip23)"><text fill="#5E5E5E" font-family="Trebuchet MS,Trebuchet MS_MSFontService,sans-serif" font-weight="400" font-size="24" transform="matrix(0.648013 0 0 0.647762 517.644 603)">float</text></g><g clip-path="url(#clip24)"><text fill="#5E5E5E" font-family="Trebuchet MS,Trebuchet MS_MSFontService,sans-serif" font-weight="400" font-size="24" transform="matrix(0.648013 0 0 0.647762 577.568 585)">col <tspan font-size="24" x="39" y="0">30</tspan></text></g><g clip-path="url(#clip25)"><text fill="#5E5E5E" font-family="Trebuchet MS,Trebuchet MS_MSFontService,sans-serif" font-weight="400" font-size="24" transform="matrix(0.648013 0 0 0.647762 578.762 603)">string</text></g><g clip-path="url(#clip26)"><text fill="#5E5E5E" font-family="Trebuchet MS,Trebuchet MS_MSFontService,sans-serif" font-weight="400" font-size="24" transform="matrix(0.648013 0 0 0.647762 645.876 585)">col <tspan font-size="24" x="39" y="0">4</tspan></text></g><g clip-path="url(#clip27)"><text fill="#5E5E5E" font-family="Trebuchet MS,Trebuchet MS_MSFontService,sans-serif" font-weight="400" font-size="24" transform="matrix(0.648013 0 0 0.647762 646.106 603)">float</text></g><g clip-path="url(#clip28)"><text fill="#5E5E5E" font-family="Trebuchet MS,Trebuchet MS_MSFontService,sans-serif" font-weight="400" font-size="24" transform="matrix(0.648013 0 0 0.647762 710.107 585)">col <tspan font-size="24" x="39.0001" y="0">5</tspan></text></g><g clip-path="url(#clip29)"><text fill="#5E5E5E" font-family="Trebuchet MS,Trebuchet MS_MSFontService,sans-serif" font-weight="400" font-size="24" transform="matrix(0.648013 0 0 0.647762 710.336 603)">float</text></g><g clip-path="url(#clip30)"><text fill="#5E5E5E" font-family="Trebuchet MS,Trebuchet MS_MSFontService,sans-serif" font-weight="400" font-size="24" transform="matrix(0.648013 0 0 0.647762 774.338 585)">col <tspan font-size="24" x="39.0001" y="0">6</tspan></text></g><g clip-path="url(#clip31)"><text fill="#5E5E5E" font-family="Trebuchet MS,Trebuchet MS_MSFontService,sans-serif" font-weight="400" font-size="24" transform="matrix(0.648013 0 0 0.647762 774.567 603)">float</text></g><g clip-path="url(#clip32)"><text fill="#5E5E5E" font-family="Trebuchet MS,Trebuchet MS_MSFontService,sans-serif" font-weight="400" font-size="24" transform="matrix(0.648013 0 0 0.647762 838.566 585)">col <tspan font-size="24" x="39" y="0">7</tspan></text></g><g clip-path="url(#clip33)"><text fill="#5E5E5E" font-family="Trebuchet MS,Trebuchet MS_MSFontService,sans-serif" font-weight="400" font-size="24" transform="matrix(0.648013 0 0 0.647762 838.799 603)">float</text></g><g clip-path="url(#clip34)"><text fill="#5E5E5E" font-family="Trebuchet MS,Trebuchet MS_MSFontService,sans-serif" font-weight="400" font-size="24" transform="matrix(0.648013 0 0 0.647762 902.797 585)">col <tspan font-size="24" x="39.0001" y="0">9</tspan></text></g><g clip-path="url(#clip35)"><text fill="#5E5E5E" font-family="Trebuchet MS,Trebuchet MS_MSFontService,sans-serif" font-weight="400" font-size="24" transform="matrix(0.648013 0 0 0.647762 903.03 603)">float</text></g><g clip-path="url(#clip36)"><text fill="#5E5E5E" font-family="Trebuchet MS,Trebuchet MS_MSFontService,sans-serif" font-weight="400" font-size="24" transform="matrix(3.96793e-17 -0.647762 0.648013 3.96639e-17 265.235 453)">Ratio <tspan font-size="24" x="64.8387" y="-3.97022e-15">(</tspan><tspan font-size="24" x="74.1013" y="-4.53739e-15">log scale</tspan><tspan font-size="24" x="166.728" y="-1.02091e-14">)</tspan></text></g><g clip-path="url(#clip37)"><path d="M213.761 251.332 221.535 251.332 221.535 259.105 213.761 259.105Z" fill="#FFC000" transform="matrix(1.00039 0 0 1 180.937 -48.0128)"/></g><g clip-path="url(#clip38)"><text fill="#5E5E5E" font-family="Trebuchet MS,Trebuchet MS_MSFontService,sans-serif" font-weight="400" font-size="24" transform="matrix(0.648013 0 0 0.647762 406.549 212)">Cascaded</text></g><g clip-path="url(#clip39)"><path d="M307.687 251.332 316.108 251.332 316.108 259.105 307.687 259.105Z" fill="#92D050" transform="matrix(1.00039 0 0 1 180.937 -48.0128)"/></g><g clip-path="url(#clip40)"><text fill="#5E5E5E" font-family="Trebuchet MS,Trebuchet MS_MSFontService,sans-serif" font-weight="400" font-size="24" transform="matrix(0.648013 0 0 0.647762 500.621 212)">LZ<tspan font-size="24" x="25" y="0">4</tspan></text></g><g clip-path="url(#clip41)"><path d="M360.803 251.332 369.224 251.332 369.224 259.105 360.803 259.105Z" fill="#008564" transform="matrix(1.00039 0 0 1 180.937 -48.0128)"/></g><g clip-path="url(#clip42)"><text fill="#5E5E5E" font-family="Trebuchet MS,Trebuchet MS_MSFontService,sans-serif" font-weight="400" font-size="24" transform="matrix(0.648013 0 0 0.647762 553.838 212)">Snappy</text></g><g clip-path="url(#clip43)"><path d="M438.535 251.332 446.956 251.332 446.956 259.105 438.535 259.105Z" fill="#43AFFF" transform="matrix(1.00039 0 0 1 180.937 -48.0128)"/></g><g clip-path="url(#clip44)"><text fill="#5E5E5E" font-family="Trebuchet MS,Trebuchet MS_MSFontService,sans-serif" font-weight="400" font-size="24" transform="matrix(0.648013 0 0 0.647762 631.61 212)">GDeflate<tspan font-size="24" x="96" y="0">-</tspan><tspan font-size="24" x="105" y="0">fast</tspan></text></g><g clip-path="url(#clip45)"><path d="M560.962 251.332 569.383 251.332 569.383 259.105 560.962 259.105Z" fill="#9A9A9A" transform="matrix(1.00039 0 0 1 180.937 -48.0128)"/></g><g clip-path="url(#clip46)"><text fill="#5E5E5E" font-family="Trebuchet MS,Trebuchet MS_MSFontService,sans-serif" font-weight="400" font-size="24" transform="matrix(0.648013 0 0 0.647762 754.018 212)">Bitcomp</text></g></g></svg>