<svg width="658" height="399" xmlns="http://www.w3.org/2000/svg" xmlns:xlink="http://www.w3.org/1999/xlink" overflow="hidden"><defs><clipPath id="clip0"><rect x="289" y="227" width="658" height="399"/></clipPath><clipPath id="clip1"><rect x="287" y="235" width="648" height="379"/></clipPath><clipPath id="clip2"><rect x="357" y="273" width="571" height="296"/></clipPath><clipPath id="clip3"><rect x="357" y="273" width="571" height="296"/></clipPath><clipPath id="clip4"><rect x="357" y="273" width="571" height="296"/></clipPath><clipPath id="clip5"><rect x="357" y="273" width="571" height="296"/></clipPath><clipPath id="clip6"><rect x="357" y="273" width="571" height="296"/></clipPath><clipPath id="clip7"><rect x="287" y="235" width="648" height="379"/></clipPath><clipPath id="clip8"><rect x="287" y="235" width="648" height="379"/></clipPath><clipPath id="clip9"><rect x="287" y="235" width="648" height="379"/></clipPath><clipPath id="clip10"><rect x="287" y="235" width="648" height="379"/></clipPath><clipPath id="clip11"><rect x="287" y="235" width="648" height="379"/></clipPath><clipPath id="clip12"><rect x="287" y="235" width="648" height="379"/></clipPath><clipPath id="clip13"><rect x="287" y="235" width="648" height="379"/></clipPath><clipPath id="clip14"><rect x="287" y="235" width="648" height="379"/></clipPath><clipPath id="clip15"><rect x="287" y="235" width="648" height="379"/></clipPath><clipPath id="clip16"><rect x="287" y="235" width="648" height="379"/></clipPath><clipPath id="clip17"><rect x="287" y="235" width="648" height="379"/></clipPath><clipPath id="clip18"><rect x="287" y="235" width="648" height="379"/></clipPath><clipPath id="clip19"><rect x="287" y="235" width="648" height="379"/></clipPath><clipPath id="clip20"><rect x="287" y="235" width="648" height="379"/></clipPath><clipPath id="clip21"><rect x="287" y="235" width="648" height="379"/></clipPath><clipPath id="clip22"><rect x="287" y="235" width="648" height="379"/></clipPath><clipPath id="clip23"><rect x="287" y="235" width="648" height="379"/></clipPath><clipPath id="clip24"><rect x="287" y="235" width="648" height="379"/></clipPath><clipPath id="clip25"><rect x="287" y="235" width="648" height="379"/></clipPath><clipPath id="clip26"><rect x="287" y="235" width="648" height="379"/></clipPath><clipPath id="clip27"><rect x="287" y="235" width="648" height="379"/></clipPath><clipPath id="clip28"><rect x="287" y="235" width="648" height="379"/></clipPath><clipPath id="clip29"><rect x="287" y="235" width="648" height="379"/></clipPath><clipPath id="clip30"><rect x="287" y="235" width="648" height="379"/></clipPath><clipPath id="clip31"><rect x="287" y="235" width="648" height="379"/></clipPath><clipPath id="clip32"><rect x="287" y="235" width="648" height="379"/></clipPath><clipPath id="clip33"><rect x="287" y="235" width="648" height="379"/></clipPath><clipPath id="clip34"><rect x="287" y="235" width="648" height="379"/></clipPath><clipPath id="clip35"><rect x="287" y="235" width="648" height="379"/></clipPath><clipPath id="clip36"><rect x="287" y="235" width="648" height="379"/></clipPath><clipPath id="clip37"><rect x="287" y="235" width="648" height="379"/></clipPath><clipPath id="clip38"><rect x="287" y="235" width="648" height="379"/></clipPath><clipPath id="clip39"><rect x="287" y="235" width="648" height="379"/></clipPath><clipPath id="clip40"><rect x="287" y="235" width="648" height="379"/></clipPath><clipPath id="clip41"><rect x="287" y="235" width="648" height="379"/></clipPath><clipPath id="clip42"><rect x="287" y="235" width="648" height="379"/></clipPath><clipPath id="clip43"><rect x="287" y="235" width="648" height="379"/></clipPath><clipPath id="clip44"><rect x="287" y="235" width="648" height="379"/></clipPath><clipPath id="clip45"><rect x="287" y="235" width="648" height="379"/></clipPath><clipPath id="clip46"><rect x="287" y="235" width="648" height="379"/></clipPath><clipPath id="clip47"><rect x="287" y="235" width="648" height="379"/></clipPath><clipPath id="clip48"><rect x="287" y="235" width="648" height="379"/></clipPath><clipPath id="clip49"><rect x="287" y="235" width="648" height="379"/></clipPath></defs><g clip-path="url(#clip0)" transform="translate(-289 -227)"><path d="M0 0 1113.9 0 1113.9 626.57 0 626.57Z" fill="#FFFFFF" transform="matrix(1.00148 0 0 1 237.372 23.0576)"/><text fill="#8C8C8C" font-family="Trebuchet MS,Trebuchet MS_MSFontService,sans-serif" font-weight="400" font-size="16" transform="matrix(0.581019 0 0 0.580158 1251.48 629)">24</text><text font-family="Trebuchet MS,Trebuchet MS_MSFontService,sans-serif" font-weight="400" font-size="64" transform="matrix(0.581019 0 0 0.580158 557.659 125)">COMPRESSION THROUGHPUT<tspan fill="#76B900" font-size="40" x="313.583" y="53.4337">A</tspan><tspan fill="#76B900" font-size="40" x="337.583" y="53.4337">100 40</tspan><tspan fill="#76B900" font-size="40" x="454.583" y="53.4337">GB</tspan></text><g clip-path="url(#clip1)"><path d="M120.383 515.47 688.357 515.47M120.383 485.882 688.357 485.882M120.383 456.874 688.357 456.874M120.383 427.286 688.357 427.286M120.383 397.698 688.357 397.698M120.383 368.69 688.357 368.69M120.383 339.102 688.357 339.102M120.383 309.514 688.357 309.514M120.383 279.926 688.357 279.926M120.383 250.918 688.357 250.918" stroke="#D9D9D9" stroke-width="0.580158" stroke-linejoin="round" stroke-miterlimit="10" fill="none" transform="matrix(1.00148 0 0 1 237.372 23.0576)"/></g><g clip-path="url(#clip2)"><path d="M127.635 290.079 134.597 290.079 134.597 544.768 127.635 544.768ZM184.49 317.346 191.452 317.346 191.452 544.768 184.49 544.768ZM241.346 328.949 248.308 328.949 248.308 544.768 241.346 544.768ZM298.201 314.445 305.163 314.445 305.163 544.768 298.201 544.768ZM355.057 316.766 362.018 316.766 362.018 544.768 355.057 544.768ZM411.912 333.011 418.874 333.011 418.874 544.768 411.912 544.768ZM468.767 326.629 475.149 326.629 475.149 544.768 468.767 544.768ZM525.623 378.263 532.005 378.263 532.005 544.768 525.623 544.768ZM581.898 384.064 588.86 384.064 588.86 544.768 581.898 544.768ZM638.754 316.766 645.716 316.766 645.716 544.768 638.754 544.768Z" fill="#FFC000" transform="matrix(1.00148 0 0 1 237.372 23.0576)"/></g><g clip-path="url(#clip3)"><path d="M136.917 360.858 143.299 360.858 143.299 544.768 136.917 544.768ZM193.193 440.92 200.154 440.92 200.154 544.768 193.193 544.768ZM250.048 342.873 257.01 342.873 257.01 544.768 250.048 544.768ZM306.903 409.591 313.865 409.591 313.865 544.768 306.903 544.768ZM363.759 442.08 370.721 442.08 370.721 544.768 363.759 544.768ZM420.614 462.386 427.576 462.386 427.576 544.768 420.614 544.768ZM477.47 432.798 484.432 432.798 484.432 544.768 477.47 544.768ZM534.325 427.576 540.707 427.576 540.707 544.768 534.325 544.768ZM590.601 465.867 597.562 465.867 597.562 544.768 590.601 544.768ZM647.456 388.126 654.418 388.126 654.418 544.768 647.456 544.768Z" fill="#92D050" transform="matrix(1.00148 0 0 1 237.372 23.0576)"/></g><g clip-path="url(#clip4)"><path d="M145.62 398.568 152.001 398.568 152.001 544.768 145.62 544.768ZM201.895 409.591 208.857 409.591 208.857 544.768 201.895 544.768ZM258.75 387.545 265.712 387.545 265.712 544.768 258.75 544.768ZM315.606 411.912 322.568 411.912 322.568 544.768 315.606 544.768ZM372.461 412.492 379.423 412.492 379.423 544.768 372.461 544.768ZM429.317 452.523 436.279 452.523 436.279 544.768 429.317 544.768ZM486.172 462.386 493.134 462.386 493.134 544.768 486.172 544.768ZM543.028 463.546 549.409 463.546 549.409 544.768 543.028 544.768ZM599.303 501.256 606.265 501.256 606.265 544.768 599.303 544.768ZM656.158 400.889 663.12 400.889 663.12 544.768 656.158 544.768Z" fill="#008564" transform="matrix(1.00148 0 0 1 237.372 23.0576)"/></g><g clip-path="url(#clip5)"><path d="M154.322 364.339 160.704 364.339 160.704 544.768 154.322 544.768ZM210.597 417.714 217.559 417.714 217.559 544.768 210.597 544.768ZM267.453 354.476 274.415 354.476 274.415 544.768 267.453 544.768ZM324.308 400.889 331.27 400.889 331.27 544.768 324.308 544.768ZM381.164 419.454 388.126 419.454 388.126 544.768 381.164 544.768ZM438.019 479.79 444.981 479.79 444.981 544.768 438.019 544.768ZM494.875 426.416 501.836 426.416 501.836 544.768 494.875 544.768ZM551.73 432.218 558.112 432.218 558.112 544.768 551.73 544.768ZM608.005 469.928 614.967 469.928 614.967 544.768 608.005 544.768ZM664.861 382.904 671.823 382.904 671.823 544.768 664.861 544.768Z" fill="#43AFFF" transform="matrix(1.00148 0 0 1 237.372 23.0576)"/></g><g clip-path="url(#clip6)"><path d="M163.024 281.377 169.406 281.377 169.406 544.768 163.024 544.768ZM219.3 286.598 226.262 286.598 226.262 544.768 219.3 544.768ZM276.155 280.796 283.117 280.796 283.117 544.768 276.155 544.768ZM333.011 276.735 339.972 276.735 339.972 544.768 333.011 544.768ZM389.866 287.178 396.828 287.178 396.828 544.768 389.866 544.768ZM446.721 290.079 453.683 290.079 453.683 544.768 446.721 544.768ZM503.577 278.476 510.539 278.476 510.539 544.768 503.577 544.768ZM560.432 276.155 566.814 276.155 566.814 544.768 560.432 544.768ZM616.708 279.636 623.67 279.636 623.67 544.768 616.708 544.768ZM673.563 280.796 680.525 280.796 680.525 544.768 673.563 544.768Z" fill="#9A9A9A" transform="matrix(1.00148 0 0 1 237.372 23.0576)"/></g><g clip-path="url(#clip7)"><path d="M120.383 545.058 688.357 545.058" stroke="#FFFFFF" stroke-width="0.580158" stroke-linejoin="round" stroke-miterlimit="10" fill="none" fill-rule="evenodd" transform="matrix(1.00148 0 0 1 237.372 23.0576)"/></g><g clip-path="url(#clip8)"><text fill="#5E5E5E" font-family="Trebuchet MS,Trebuchet MS_MSFontService,sans-serif" font-weight="400" font-size="24" transform="matrix(0.581019 0 0 0.580158 338.175 572)">1</text></g><g clip-path="url(#clip9)"><text fill="#5E5E5E" font-family="Trebuchet MS,Trebuchet MS_MSFontService,sans-serif" font-weight="400" font-size="24" transform="matrix(0.581019 0 0 0.580158 338.175 543)">2</text></g><g clip-path="url(#clip10)"><text fill="#5E5E5E" font-family="Trebuchet MS,Trebuchet MS_MSFontService,sans-serif" font-weight="400" font-size="24" transform="matrix(0.581019 0 0 0.580158 338.175 514)">4</text></g><g clip-path="url(#clip11)"><text fill="#5E5E5E" font-family="Trebuchet MS,Trebuchet MS_MSFontService,sans-serif" font-weight="400" font-size="24" transform="matrix(0.581019 0 0 0.580158 338.175 484)">8</text></g><g clip-path="url(#clip12)"><text fill="#5E5E5E" font-family="Trebuchet MS,Trebuchet MS_MSFontService,sans-serif" font-weight="400" font-size="24" transform="matrix(0.581019 0 0 0.580158 330.862 455)">16</text></g><g clip-path="url(#clip13)"><text fill="#5E5E5E" font-family="Trebuchet MS,Trebuchet MS_MSFontService,sans-serif" font-weight="400" font-size="24" transform="matrix(0.581019 0 0 0.580158 330.862 426)">32</text></g><g clip-path="url(#clip14)"><text fill="#5E5E5E" font-family="Trebuchet MS,Trebuchet MS_MSFontService,sans-serif" font-weight="400" font-size="24" transform="matrix(0.581019 0 0 0.580158 330.862 396)">64</text></g><g clip-path="url(#clip15)"><text fill="#5E5E5E" font-family="Trebuchet MS,Trebuchet MS_MSFontService,sans-serif" font-weight="400" font-size="24" transform="matrix(0.581019 0 0 0.580158 323.549 367)">128</text></g><g clip-path="url(#clip16)"><text fill="#5E5E5E" font-family="Trebuchet MS,Trebuchet MS_MSFontService,sans-serif" font-weight="400" font-size="24" transform="matrix(0.581019 0 0 0.580158 323.549 338)">256</text></g><g clip-path="url(#clip17)"><text fill="#5E5E5E" font-family="Trebuchet MS,Trebuchet MS_MSFontService,sans-serif" font-weight="400" font-size="24" transform="matrix(0.581019 0 0 0.580158 323.549 308)">512</text></g><g clip-path="url(#clip18)"><text fill="#5E5E5E" font-family="Trebuchet MS,Trebuchet MS_MSFontService,sans-serif" font-weight="400" font-size="24" transform="matrix(0.581019 0 0 0.580158 316.236 278)">1024</text></g><g clip-path="url(#clip19)"><text fill="#5E5E5E" font-family="Trebuchet MS,Trebuchet MS_MSFontService,sans-serif" font-weight="400" font-size="24" transform="matrix(0.581019 0 0 0.580158 371.37 590)">col <tspan font-size="24" x="39" y="0">0</tspan></text></g><g clip-path="url(#clip20)"><text fill="#5E5E5E" font-family="Trebuchet MS,Trebuchet MS_MSFontService,sans-serif" font-weight="400" font-size="24" transform="matrix(0.581019 0 0 0.580158 364.002 606)">integer</text></g><g clip-path="url(#clip21)"><text fill="#5E5E5E" font-family="Trebuchet MS,Trebuchet MS_MSFontService,sans-serif" font-weight="400" font-size="24" transform="matrix(0.581019 0 0 0.580158 424.572 590)">col <tspan font-size="24" x="39" y="0">12</tspan></text></g><g clip-path="url(#clip22)"><text fill="#5E5E5E" font-family="Trebuchet MS,Trebuchet MS_MSFontService,sans-serif" font-weight="400" font-size="24" transform="matrix(0.581019 0 0 0.580158 425.643 606)">string</text></g><g clip-path="url(#clip23)"><text fill="#5E5E5E" font-family="Trebuchet MS,Trebuchet MS_MSFontService,sans-serif" font-weight="400" font-size="24" transform="matrix(0.581019 0 0 0.580158 485.088 590)">col <tspan font-size="24" x="39" y="0">2</tspan></text></g><g clip-path="url(#clip24)"><text fill="#5E5E5E" font-family="Trebuchet MS,Trebuchet MS_MSFontService,sans-serif" font-weight="400" font-size="24" transform="matrix(0.581019 0 0 0.580158 482.502 606)">string</text></g><g clip-path="url(#clip25)"><text fill="#5E5E5E" font-family="Trebuchet MS,Trebuchet MS_MSFontService,sans-serif" font-weight="400" font-size="24" transform="matrix(0.581019 0 0 0.580158 541.947 590)">col <tspan font-size="24" x="39.0001" y="0">3</tspan></text></g><g clip-path="url(#clip26)"><text fill="#5E5E5E" font-family="Trebuchet MS,Trebuchet MS_MSFontService,sans-serif" font-weight="400" font-size="24" transform="matrix(0.581019 0 0 0.580158 542.152 606)">float</text></g><g clip-path="url(#clip27)"><text fill="#5E5E5E" font-family="Trebuchet MS,Trebuchet MS_MSFontService,sans-serif" font-weight="400" font-size="24" transform="matrix(0.581019 0 0 0.580158 595.149 590)">col <tspan font-size="24" x="39" y="0">30</tspan></text></g><g clip-path="url(#clip28)"><text fill="#5E5E5E" font-family="Trebuchet MS,Trebuchet MS_MSFontService,sans-serif" font-weight="400" font-size="24" transform="matrix(0.581019 0 0 0.580158 596.22 606)">string</text></g><g clip-path="url(#clip29)"><text fill="#5E5E5E" font-family="Trebuchet MS,Trebuchet MS_MSFontService,sans-serif" font-weight="400" font-size="24" transform="matrix(0.581019 0 0 0.580158 655.665 590)">col <tspan font-size="24" x="39.0001" y="0">4</tspan></text></g><g clip-path="url(#clip30)"><text fill="#5E5E5E" font-family="Trebuchet MS,Trebuchet MS_MSFontService,sans-serif" font-weight="400" font-size="24" transform="matrix(0.581019 0 0 0.580158 655.87 606)">float</text></g><g clip-path="url(#clip31)"><text fill="#5E5E5E" font-family="Trebuchet MS,Trebuchet MS_MSFontService,sans-serif" font-weight="400" font-size="24" transform="matrix(0.581019 0 0 0.580158 712.524 590)">col <tspan font-size="24" x="39" y="0">5</tspan></text></g><g clip-path="url(#clip32)"><text fill="#5E5E5E" font-family="Trebuchet MS,Trebuchet MS_MSFontService,sans-serif" font-weight="400" font-size="24" transform="matrix(0.581019 0 0 0.580158 712.729 606)">float</text></g><g clip-path="url(#clip33)"><text fill="#5E5E5E" font-family="Trebuchet MS,Trebuchet MS_MSFontService,sans-serif" font-weight="400" font-size="24" transform="matrix(0.581019 0 0 0.580158 769.383 590)">col <tspan font-size="24" x="39" y="0">6</tspan></text></g><g clip-path="url(#clip34)"><text fill="#5E5E5E" font-family="Trebuchet MS,Trebuchet MS_MSFontService,sans-serif" font-weight="400" font-size="24" transform="matrix(0.581019 0 0 0.580158 769.588 606)">float</text></g><g clip-path="url(#clip35)"><text fill="#5E5E5E" font-family="Trebuchet MS,Trebuchet MS_MSFontService,sans-serif" font-weight="400" font-size="24" transform="matrix(0.581019 0 0 0.580158 826.241 590)">col <tspan font-size="24" x="39.0001" y="0">7</tspan></text></g><g clip-path="url(#clip36)"><text fill="#5E5E5E" font-family="Trebuchet MS,Trebuchet MS_MSFontService,sans-serif" font-weight="400" font-size="24" transform="matrix(0.581019 0 0 0.580158 826.45 606)">float</text></g><g clip-path="url(#clip37)"><text fill="#5E5E5E" font-family="Trebuchet MS,Trebuchet MS_MSFontService,sans-serif" font-weight="400" font-size="24" transform="matrix(0.581019 0 0 0.580158 883.099 590)">col <tspan font-size="24" x="39" y="0">9</tspan></text></g><g clip-path="url(#clip38)"><text fill="#5E5E5E" font-family="Trebuchet MS,Trebuchet MS_MSFontService,sans-serif" font-weight="400" font-size="24" transform="matrix(0.581019 0 0 0.580158 883.308 606)">float</text></g><g clip-path="url(#clip39)"><text fill="#5E5E5E" font-family="Trebuchet MS,Trebuchet MS_MSFontService,sans-serif" font-weight="400" font-size="24" transform="matrix(3.55771e-17 -0.580158 0.581019 3.55244e-17 311.084 470)">GB<tspan font-size="24" x="29.3024" y="-1.79425e-15">/</tspan><tspan font-size="24" x="43.0917" y="-2.63861e-15">s </tspan><tspan font-size="24" x="58.6047" y="-3.5885e-15">(</tspan><tspan font-size="24" x="68.9468" y="-4.22177e-15">log scale</tspan><tspan font-size="24" x="162.025" y="-9.92116e-15">)</tspan></text></g><g clip-path="url(#clip40)"><path d="M189.712 225.101 196.673 225.101 196.673 232.063 189.712 232.063Z" fill="#FFC000" transform="matrix(1.00148 0 0 1 237.372 23.0576)"/></g><g clip-path="url(#clip41)"><text fill="#5E5E5E" font-family="Trebuchet MS,Trebuchet MS_MSFontService,sans-serif" font-weight="400" font-size="24" transform="matrix(0.581019 0 0 0.580158 437.789 256)">Cascaded</text></g><g clip-path="url(#clip42)"><path d="M273.834 225.101 280.796 225.101 280.796 232.063 273.834 232.063Z" fill="#92D050" transform="matrix(1.00148 0 0 1 237.372 23.0576)"/></g><g clip-path="url(#clip43)"><text fill="#5E5E5E" font-family="Trebuchet MS,Trebuchet MS_MSFontService,sans-serif" font-weight="400" font-size="24" transform="matrix(0.581019 0 0 0.580158 522.135 256)">LZ<tspan font-size="24" x="25.0001" y="0">4</tspan></text></g><g clip-path="url(#clip44)"><path d="M321.407 225.101 328.369 225.101 328.369 232.063 321.407 232.063Z" fill="#008564" transform="matrix(1.00148 0 0 1 237.372 23.0576)"/></g><g clip-path="url(#clip45)"><text fill="#5E5E5E" font-family="Trebuchet MS,Trebuchet MS_MSFontService,sans-serif" font-weight="400" font-size="24" transform="matrix(0.581019 0 0 0.580158 569.85 256)">Snappy</text></g><g clip-path="url(#clip46)"><path d="M391.026 225.101 397.988 225.101 397.988 232.063 391.026 232.063Z" fill="#43AFFF" transform="matrix(1.00148 0 0 1 237.372 23.0576)"/></g><g clip-path="url(#clip47)"><text fill="#5E5E5E" font-family="Trebuchet MS,Trebuchet MS_MSFontService,sans-serif" font-weight="400" font-size="24" transform="matrix(0.581019 0 0 0.580158 639.583 256)">GDeflate<tspan font-size="24" x="96" y="0">-</tspan><tspan font-size="24" x="105" y="0">fast</tspan></text></g><g clip-path="url(#clip48)"><path d="M500.676 225.101 507.638 225.101 507.638 232.063 500.676 232.063Z" fill="#9A9A9A" transform="matrix(1.00148 0 0 1 237.372 23.0576)"/></g><g clip-path="url(#clip49)"><text fill="#5E5E5E" font-family="Trebuchet MS,Trebuchet MS_MSFontService,sans-serif" font-weight="400" font-size="24" transform="matrix(0.581019 0 0 0.580158 749.335 256)">Bitcomp</text></g></g></svg>