<svg width="653" height="400" xmlns="http://www.w3.org/2000/svg" xmlns:xlink="http://www.w3.org/1999/xlink" overflow="hidden"><defs><clipPath id="clip0"><rect x="193" y="248" width="653" height="400"/></clipPath><clipPath id="clip1"><rect x="193" y="259" width="644" height="376"/></clipPath><clipPath id="clip2"><rect x="256" y="296" width="573" height="294"/></clipPath><clipPath id="clip3"><rect x="256" y="296" width="573" height="294"/></clipPath><clipPath id="clip4"><rect x="256" y="296" width="573" height="294"/></clipPath><clipPath id="clip5"><rect x="256" y="296" width="573" height="294"/></clipPath><clipPath id="clip6"><rect x="256" y="296" width="573" height="294"/></clipPath><clipPath id="clip7"><rect x="193" y="259" width="644" height="376"/></clipPath><clipPath id="clip8"><rect x="193" y="259" width="644" height="376"/></clipPath><clipPath id="clip9"><rect x="193" y="259" width="644" height="376"/></clipPath><clipPath id="clip10"><rect x="193" y="259" width="644" height="376"/></clipPath><clipPath id="clip11"><rect x="193" y="259" width="644" height="376"/></clipPath><clipPath id="clip12"><rect x="193" y="259" width="644" height="376"/></clipPath><clipPath id="clip13"><rect x="193" y="259" width="644" height="376"/></clipPath><clipPath id="clip14"><rect x="193" y="259" width="644" height="376"/></clipPath><clipPath id="clip15"><rect x="193" y="259" width="644" height="376"/></clipPath><clipPath id="clip16"><rect x="193" y="259" width="644" height="376"/></clipPath><clipPath id="clip17"><rect x="193" y="259" width="644" height="376"/></clipPath><clipPath id="clip18"><rect x="193" y="259" width="644" height="376"/></clipPath><clipPath id="clip19"><rect x="193" y="259" width="644" height="376"/></clipPath><clipPath id="clip20"><rect x="193" y="259" width="644" height="376"/></clipPath><clipPath id="clip21"><rect x="193" y="259" width="644" height="376"/></clipPath><clipPath id="clip22"><rect x="193" y="259" width="644" height="376"/></clipPath><clipPath id="clip23"><rect x="193" y="259" width="644" height="376"/></clipPath><clipPath id="clip24"><rect x="193" y="259" width="644" height="376"/></clipPath><clipPath id="clip25"><rect x="193" y="259" width="644" height="376"/></clipPath><clipPath id="clip26"><rect x="193" y="259" width="644" height="376"/></clipPath><clipPath id="clip27"><rect x="193" y="259" width="644" height="376"/></clipPath><clipPath id="clip28"><rect x="193" y="259" width="644" height="376"/></clipPath><clipPath id="clip29"><rect x="193" y="259" width="644" height="376"/></clipPath><clipPath id="clip30"><rect x="193" y="259" width="644" height="376"/></clipPath><clipPath id="clip31"><rect x="193" y="259" width="644" height="376"/></clipPath><clipPath id="clip32"><rect x="193" y="259" width="644" height="376"/></clipPath><clipPath id="clip33"><rect x="193" y="259" width="644" height="376"/></clipPath><clipPath id="clip34"><rect x="193" y="259" width="644" height="376"/></clipPath><clipPath id="clip35"><rect x="193" y="259" width="644" height="376"/></clipPath><clipPath id="clip36"><rect x="193" y="259" width="644" height="376"/></clipPath><clipPath id="clip37"><rect x="193" y="259" width="644" height="376"/></clipPath><clipPath id="clip38"><rect x="193" y="259" width="644" height="376"/></clipPath><clipPath id="clip39"><rect x="193" y="259" width="644" height="376"/></clipPath><clipPath id="clip40"><rect x="193" y="259" width="644" height="376"/></clipPath><clipPath id="clip41"><rect x="193" y="259" width="644" height="376"/></clipPath><clipPath id="clip42"><rect x="193" y="259" width="644" height="376"/></clipPath><clipPath id="clip43"><rect x="193" y="259" width="644" height="376"/></clipPath><clipPath id="clip44"><rect x="193" y="259" width="644" height="376"/></clipPath><clipPath id="clip45"><rect x="193" y="259" width="644" height="376"/></clipPath></defs><g clip-path="url(#clip0)" transform="translate(-193 -248)"><path d="M0 0 1106.72 0 1106.72 622.529 0 622.529Z" fill="#FFFFFF" transform="matrix(1.00024 0 0 1 143.197 47.5393)"/><text fill="#8C8C8C" font-family="Trebuchet MS,Trebuchet MS_MSFontService,sans-serif" font-weight="400" font-size="16" transform="matrix(0.576555 0 0 0.576416 1149.51 649)">25</text><text font-family="Trebuchet MS,Trebuchet MS_MSFontService,sans-serif" font-weight="400" font-size="64" transform="matrix(0.576555 0 0 0.576416 439.786 148)">DECOMPRESSION THROUGHPUT<tspan fill="#76B900" font-size="40" x="350.417" y="55.5155">A</tspan><tspan fill="#76B900" font-size="40" x="374.417" y="55.5155">100 40</tspan><tspan fill="#76B900" font-size="40" x="491.417" y="55.5155">GB</tspan></text><g clip-path="url(#clip1)"><path d="M113.266 492.548 684.494 492.548M113.266 444.129 684.494 444.129M113.266 395.133 684.494 395.133M113.266 346.714 684.494 346.714M113.266 297.719 684.494 297.719M113.266 249.3 684.494 249.3" stroke="#D9D9D9" stroke-width="0.576416" stroke-linejoin="round" stroke-miterlimit="10" fill="none" transform="matrix(1.00024 0 0 1 143.197 47.5393)"/></g><g clip-path="url(#clip2)"><path d="M121.047 410.985 127.964 410.985 127.964 541.255 121.047 541.255ZM178.113 293.396 185.03 293.396 185.03 541.255 178.113 541.255ZM235.178 405.22 242.095 405.22 242.095 541.255 235.178 541.255ZM292.243 286.479 299.16 286.479 299.16 541.255 292.243 541.255ZM349.308 299.736 356.225 299.736 356.225 541.255 349.308 541.255ZM406.373 407.526 413.29 407.526 413.29 541.255 406.373 541.255ZM463.439 385.046 470.356 385.046 470.356 541.255 463.439 541.255ZM520.504 504.94 527.421 504.94 527.421 541.255 520.504 541.255ZM578.145 512.434 585.062 512.434 585.062 541.255 578.145 541.255ZM635.211 291.09 642.128 291.09 642.128 541.255 635.211 541.255Z" fill="#FFC000" transform="matrix(1.00024 0 0 1 143.197 47.5393)"/></g><g clip-path="url(#clip3)"><path d="M129.694 371.788 136.611 371.788 136.611 541.255 129.694 541.255ZM186.759 528.574 193.676 528.574 193.676 541.255 186.759 541.255ZM243.824 408.103 250.741 408.103 250.741 541.255 243.824 541.255ZM300.889 513.01 307.806 513.01 307.806 541.255 300.889 541.255ZM357.954 528.574 364.871 528.574 364.871 541.255 357.954 541.255ZM415.02 507.823 421.937 507.823 421.937 541.255 415.02 541.255ZM472.661 520.504 479.578 520.504 479.578 541.255 472.661 541.255ZM529.726 513.587 536.643 513.587 536.643 541.255 529.726 541.255ZM586.792 531.456 593.709 531.456 593.709 541.255 586.792 541.255ZM643.857 493.989 650.774 493.989 650.774 541.255 643.857 541.255Z" fill="#92D050" transform="matrix(1.00024 0 0 1 143.197 47.5393)"/></g><g clip-path="url(#clip4)"><path d="M138.34 502.635 145.257 502.635 145.257 541.255 138.34 541.255ZM195.405 499.753 202.322 499.753 202.322 541.255 195.405 541.255ZM252.47 506.67 259.387 506.67 259.387 541.255 252.47 541.255ZM309.535 515.892 316.452 515.892 316.452 541.255 309.535 541.255ZM367.177 514.163 374.094 514.163 374.094 541.255 367.177 541.255ZM424.242 529.726 431.159 529.726 431.159 541.255 424.242 541.255ZM481.307 523.962 488.224 523.962 488.224 541.255 481.307 541.255ZM538.373 526.268 545.29 526.268 545.29 541.255 538.373 541.255ZM595.438 532.032 602.355 532.032 602.355 541.255 595.438 541.255ZM652.503 510.705 659.42 510.705 659.42 541.255 652.503 541.255Z" fill="#008564" transform="matrix(1.00024 0 0 1 143.197 47.5393)"/></g><g clip-path="url(#clip5)"><path d="M146.986 431.736 153.903 431.736 153.903 541.255 146.986 541.255ZM204.051 487.648 210.968 487.648 210.968 541.255 204.051 541.255ZM261.693 424.819 268.61 424.819 268.61 541.255 261.693 541.255ZM318.758 466.897 325.675 466.897 325.675 541.255 318.758 541.255ZM375.823 487.648 382.74 487.648 382.74 541.255 375.823 541.255ZM432.888 523.386 439.805 523.386 439.805 541.255 432.888 541.255ZM489.954 480.731 496.871 480.731 496.871 541.255 489.954 541.255ZM547.019 485.919 553.936 485.919 553.936 541.255 547.019 541.255ZM604.084 506.093 611.001 506.093 611.001 541.255 604.084 541.255ZM661.149 457.674 668.066 457.674 668.066 541.255 661.149 541.255Z" fill="#43AFFF" transform="matrix(1.00024 0 0 1 143.197 47.5393)"/></g><g clip-path="url(#clip6)"><path d="M156.209 369.483 163.126 369.483 163.126 541.255 156.209 541.255ZM213.274 448.452 220.191 448.452 220.191 541.255 213.274 541.255ZM270.339 304.924 277.256 304.924 277.256 541.255 270.339 541.255ZM327.404 298.584 334.321 298.584 334.321 541.255 327.404 541.255ZM384.47 448.452 391.387 448.452 391.387 541.255 384.47 541.255ZM441.535 444.993 448.452 444.993 448.452 541.255 441.535 541.255ZM498.6 449.605 505.517 449.605 505.517 541.255 498.6 541.255ZM555.665 357.378 562.582 357.378 562.582 541.255 555.665 541.255ZM612.73 423.089 619.647 423.089 619.647 541.255 612.73 541.255ZM670.372 412.137 677.289 412.137 677.289 541.255 670.372 541.255Z" fill="#9A9A9A" transform="matrix(1.00024 0 0 1 143.197 47.5393)"/></g><g clip-path="url(#clip7)"><path d="M113.266 541.543 684.494 541.543" stroke="#FFFFFF" stroke-width="0.576416" stroke-linejoin="round" stroke-miterlimit="10" fill="none" fill-rule="evenodd" transform="matrix(1.00024 0 0 1 143.197 47.5393)"/></g><g clip-path="url(#clip8)"><text fill="#5E5E5E" font-family="Trebuchet MS,Trebuchet MS_MSFontService,sans-serif" font-weight="400" font-size="24" transform="matrix(0.576555 0 0 0.576416 236.879 594)">0</text></g><g clip-path="url(#clip9)"><text fill="#5E5E5E" font-family="Trebuchet MS,Trebuchet MS_MSFontService,sans-serif" font-weight="400" font-size="24" transform="matrix(0.576555 0 0 0.576416 222.365 545)">100</text></g><g clip-path="url(#clip10)"><text fill="#5E5E5E" font-family="Trebuchet MS,Trebuchet MS_MSFontService,sans-serif" font-weight="400" font-size="24" transform="matrix(0.576555 0 0 0.576416 222.365 496)">200</text></g><g clip-path="url(#clip11)"><text fill="#5E5E5E" font-family="Trebuchet MS,Trebuchet MS_MSFontService,sans-serif" font-weight="400" font-size="24" transform="matrix(0.576555 0 0 0.576416 222.365 448)">300</text></g><g clip-path="url(#clip12)"><text fill="#5E5E5E" font-family="Trebuchet MS,Trebuchet MS_MSFontService,sans-serif" font-weight="400" font-size="24" transform="matrix(0.576555 0 0 0.576416 222.365 399)">400</text></g><g clip-path="url(#clip13)"><text fill="#5E5E5E" font-family="Trebuchet MS,Trebuchet MS_MSFontService,sans-serif" font-weight="400" font-size="24" transform="matrix(0.576555 0 0 0.576416 222.365 350)">500</text></g><g clip-path="url(#clip14)"><text fill="#5E5E5E" font-family="Trebuchet MS,Trebuchet MS_MSFontService,sans-serif" font-weight="400" font-size="24" transform="matrix(0.576555 0 0 0.576416 222.365 301)">600</text></g><g clip-path="url(#clip15)"><text fill="#5E5E5E" font-family="Trebuchet MS,Trebuchet MS_MSFontService,sans-serif" font-weight="400" font-size="24" transform="matrix(0.576555 0 0 0.576416 270.182 611)">col <tspan font-size="24" x="39" y="0">0</tspan></text></g><g clip-path="url(#clip16)"><text fill="#5E5E5E" font-family="Trebuchet MS,Trebuchet MS_MSFontService,sans-serif" font-weight="400" font-size="24" transform="matrix(0.576555 0 0 0.576416 262.871 627)">integer</text></g><g clip-path="url(#clip17)"><text fill="#5E5E5E" font-family="Trebuchet MS,Trebuchet MS_MSFontService,sans-serif" font-weight="400" font-size="24" transform="matrix(0.576555 0 0 0.576416 323.701 611)">col <tspan font-size="24" x="39" y="0">12</tspan></text></g><g clip-path="url(#clip18)"><text fill="#5E5E5E" font-family="Trebuchet MS,Trebuchet MS_MSFontService,sans-serif" font-weight="400" font-size="24" transform="matrix(0.576555 0 0 0.576416 324.764 627)">string</text></g><g clip-path="url(#clip19)"><text fill="#5E5E5E" font-family="Trebuchet MS,Trebuchet MS_MSFontService,sans-serif" font-weight="400" font-size="24" transform="matrix(0.576555 0 0 0.576416 384.478 611)">col <tspan font-size="24" x="39" y="0">2</tspan></text></g><g clip-path="url(#clip20)"><text fill="#5E5E5E" font-family="Trebuchet MS,Trebuchet MS_MSFontService,sans-serif" font-weight="400" font-size="24" transform="matrix(0.576555 0 0 0.576416 381.912 627)">string</text></g><g clip-path="url(#clip21)"><text fill="#5E5E5E" font-family="Trebuchet MS,Trebuchet MS_MSFontService,sans-serif" font-weight="400" font-size="24" transform="matrix(0.576555 0 0 0.576416 441.625 611)">col <tspan font-size="24" x="39" y="0">3</tspan></text></g><g clip-path="url(#clip22)"><text fill="#5E5E5E" font-family="Trebuchet MS,Trebuchet MS_MSFontService,sans-serif" font-weight="400" font-size="24" transform="matrix(0.576555 0 0 0.576416 441.829 627)">float</text></g><g clip-path="url(#clip23)"><text fill="#5E5E5E" font-family="Trebuchet MS,Trebuchet MS_MSFontService,sans-serif" font-weight="400" font-size="24" transform="matrix(0.576555 0 0 0.576416 495.144 611)">col <tspan font-size="24" x="39" y="0">30</tspan></text></g><g clip-path="url(#clip24)"><text fill="#5E5E5E" font-family="Trebuchet MS,Trebuchet MS_MSFontService,sans-serif" font-weight="400" font-size="24" transform="matrix(0.576555 0 0 0.576416 496.208 627)">string</text></g><g clip-path="url(#clip25)"><text fill="#5E5E5E" font-family="Trebuchet MS,Trebuchet MS_MSFontService,sans-serif" font-weight="400" font-size="24" transform="matrix(0.576555 0 0 0.576416 555.921 611)">col <tspan font-size="24" x="39" y="0">4</tspan></text></g><g clip-path="url(#clip26)"><text fill="#5E5E5E" font-family="Trebuchet MS,Trebuchet MS_MSFontService,sans-serif" font-weight="400" font-size="24" transform="matrix(0.576555 0 0 0.576416 556.125 627)">float</text></g><g clip-path="url(#clip27)"><text fill="#5E5E5E" font-family="Trebuchet MS,Trebuchet MS_MSFontService,sans-serif" font-weight="400" font-size="24" transform="matrix(0.576555 0 0 0.576416 613.069 611)">col <tspan font-size="24" x="39" y="0">5</tspan></text></g><g clip-path="url(#clip28)"><text fill="#5E5E5E" font-family="Trebuchet MS,Trebuchet MS_MSFontService,sans-serif" font-weight="400" font-size="24" transform="matrix(0.576555 0 0 0.576416 613.273 627)">float</text></g><g clip-path="url(#clip29)"><text fill="#5E5E5E" font-family="Trebuchet MS,Trebuchet MS_MSFontService,sans-serif" font-weight="400" font-size="24" transform="matrix(0.576555 0 0 0.576416 670.217 611)">col <tspan font-size="24" x="39" y="0">6</tspan></text></g><g clip-path="url(#clip30)"><text fill="#5E5E5E" font-family="Trebuchet MS,Trebuchet MS_MSFontService,sans-serif" font-weight="400" font-size="24" transform="matrix(0.576555 0 0 0.576416 670.421 627)">float</text></g><g clip-path="url(#clip31)"><text fill="#5E5E5E" font-family="Trebuchet MS,Trebuchet MS_MSFontService,sans-serif" font-weight="400" font-size="24" transform="matrix(0.576555 0 0 0.576416 727.362 611)">col <tspan font-size="24" x="39" y="0">7</tspan></text></g><g clip-path="url(#clip32)"><text fill="#5E5E5E" font-family="Trebuchet MS,Trebuchet MS_MSFontService,sans-serif" font-weight="400" font-size="24" transform="matrix(0.576555 0 0 0.576416 727.57 627)">float</text></g><g clip-path="url(#clip33)"><text fill="#5E5E5E" font-family="Trebuchet MS,Trebuchet MS_MSFontService,sans-serif" font-weight="400" font-size="24" transform="matrix(0.576555 0 0 0.576416 784.511 611)">col <tspan font-size="24" x="39" y="0">9</tspan></text></g><g clip-path="url(#clip34)"><text fill="#5E5E5E" font-family="Trebuchet MS,Trebuchet MS_MSFontService,sans-serif" font-weight="400" font-size="24" transform="matrix(0.576555 0 0 0.576416 784.718 627)">float</text></g><g clip-path="url(#clip35)"><text fill="#5E5E5E" font-family="Trebuchet MS,Trebuchet MS_MSFontService,sans-serif" font-weight="400" font-size="24" transform="matrix(3.53038e-17 -0.576416 0.576555 3.52953e-17 217.253 458)">GB<tspan font-size="24" x="29.4926" y="-1.8059e-15">/</tspan><tspan font-size="24" x="43.3714" y="-2.65573e-15">s</tspan></text></g><g clip-path="url(#clip36)"><path d="M189.064 223.649 196.558 223.649 196.558 230.566 189.064 230.566Z" fill="#FFC000" transform="matrix(1.00024 0 0 1 143.197 47.5393)"/></g><g clip-path="url(#clip37)"><text fill="#5E5E5E" font-family="Trebuchet MS,Trebuchet MS_MSFontService,sans-serif" font-weight="400" font-size="24" transform="matrix(0.576555 0 0 0.576416 342.985 279)">Cascaded</text></g><g clip-path="url(#clip38)"><path d="M272.645 223.649 280.138 223.649 280.138 230.566 272.645 230.566Z" fill="#92D050" transform="matrix(1.00024 0 0 1 143.197 47.5393)"/></g><g clip-path="url(#clip39)"><text fill="#5E5E5E" font-family="Trebuchet MS,Trebuchet MS_MSFontService,sans-serif" font-weight="400" font-size="24" transform="matrix(0.576555 0 0 0.576416 426.683 279)">LZ<tspan font-size="24" x="25" y="0">4</tspan></text></g><g clip-path="url(#clip40)"><path d="M320.487 223.649 327.404 223.649 327.404 230.566 320.487 230.566Z" fill="#008564" transform="matrix(1.00024 0 0 1 143.197 47.5393)"/></g><g clip-path="url(#clip41)"><text fill="#5E5E5E" font-family="Trebuchet MS,Trebuchet MS_MSFontService,sans-serif" font-weight="400" font-size="24" transform="matrix(0.576555 0 0 0.576416 474.032 279)">Snappy</text></g><g clip-path="url(#clip42)"><path d="M389.657 223.649 396.574 223.649 396.574 230.566 389.657 230.566Z" fill="#43AFFF" transform="matrix(1.00024 0 0 1 143.197 47.5393)"/></g><g clip-path="url(#clip43)"><text fill="#5E5E5E" font-family="Trebuchet MS,Trebuchet MS_MSFontService,sans-serif" font-weight="400" font-size="24" transform="matrix(0.576555 0 0 0.576416 543.228 279)">GDeflate-<tspan font-size="24" x="105" y="0">fast</tspan></text></g><g clip-path="url(#clip44)"><path d="M498.023 223.649 505.517 223.649 505.517 230.566 498.023 230.566Z" fill="#9A9A9A" transform="matrix(1.00024 0 0 1 143.197 47.5393)"/></g><g clip-path="url(#clip45)"><text fill="#5E5E5E" font-family="Trebuchet MS,Trebuchet MS_MSFontService,sans-serif" font-weight="400" font-size="24" transform="matrix(0.576555 0 0 0.576416 652.138 279)">Bitcomp</text></g></g></svg>